<?xml version="1.0" encoding="utf-8"?>
<!-- Generator: Adobe Illustrator 21.0.0, SVG Export Plug-In . SVG Version: 6.00 Build 0)  -->
<svg version="1.1" id="Layer_1" xmlns="http://www.w3.org/2000/svg" xmlns:xlink="http://www.w3.org/1999/xlink" x="0px" y="0px"
	 viewBox="0 0 260 260" style="enable-background:new 0 0 260 260;" xml:space="preserve">
<style type="text/css">
	.st0{fill:#FFFFFF;}
</style>
<g transform="translate(0.000000,260.000000) scale(0.100000,-0.100000)">
	<path class="st0" d="M1150,2593c-14-3-56-11-95-19c-38-8-80-17-93-20c-37-8-144-50-212-83c-112-56-235-156-308-251
		c-51-66-112-192-126-262c-3-13-8-34-12-48s-9-180-11-370l-4-345l93,91c51,51,102,97,114,102c46,24,85,5,179-89c50-49,93-89,95-89
		c3,0,5,175,5,388c1,385,1,388,23,424c13,21,40,47,60,60c37,23,38,23,432,24c217,0,409-3,427-8c44-12,101-72,109-114
		c3-19,7-95,7-169l1-135l87-85c125-123,143-120,302,45l98,101l-6,72c-11,127-26,179-82,294c-115,233-377,408-708,474
		C1466,2592,1200,2601,1150,2593z"/>
	<path class="st0" d="M2206,1360c-62-62-119-111-130-112c-12,0-28-2-36-3c-27-3-64,22-121,82c-30,32-62,64-70,70
		c-14,11-16-27-16-365c0-341-2-381-18-415c-17-37-48-64-95-83c-16-7-171-10-425-9c-439,1-439,1-483,62c-31,43-38,88-37,226v128
		l-97,95c-86,83-102,94-133,94c-51,0-69-12-168-111l-88-88l2-87c8-320,161-558,459-713c87-46,220-92,325-112c88-17,370-18,445-1
		c30,7,66,14,79,17c43,8,154,47,221,77c157,71,312,203,389,332c35,58,76,154,85,196c3,14,8,36,12,50c8,26,18,649,12,733l-3,47
		L2206,1360z"/>
	<path class="st0" d="M1251,784c-39-50-16-108,46-120c26-5,37-1,57,19c31,31,33,65,5,101c-15,19-30,26-54,26S1266,803,1251,784z"/>
</g>
</svg>
